<svg width="46" height="13" viewBox="0 0 46 13" fill="none" xmlns="http://www.w3.org/2000/svg">
<path d="M6.01989 4.49716L5.04119 4.77415C4.97964 4.61103 4.88885 4.45253 4.76882 4.29865C4.65187 4.14169 4.49183 4.01243 4.28871 3.91087C4.08558 3.8093 3.82552 3.75852 3.50852 3.75852C3.07457 3.75852 2.71295 3.85855 2.42365 4.05859C2.13743 4.25556 1.99432 4.50639 1.99432 4.81108C1.99432 5.08191 2.0928 5.29581 2.28977 5.45277C2.48674 5.60973 2.79451 5.74053 3.21307 5.84517L4.26562 6.10369C4.89962 6.25758 5.37204 6.49302 5.68288 6.81001C5.99373 7.12393 6.14915 7.52865 6.14915 8.02415C6.14915 8.4304 6.0322 8.79356 5.7983 9.11364C5.56747 9.43371 5.24432 9.68608 4.82884 9.87074C4.41335 10.0554 3.93016 10.1477 3.37926 10.1477C2.65601 10.1477 2.05741 9.99077 1.58345 9.67685C1.10949 9.36293 0.809422 8.90436 0.683239 8.30114L1.71733 8.04261C1.81581 8.42424 2.00201 8.71046 2.27592 8.90128C2.55291 9.09209 2.91454 9.1875 3.3608 9.1875C3.86861 9.1875 4.27178 9.07978 4.57031 8.86435C4.87192 8.64583 5.02273 8.38423 5.02273 8.07955C5.02273 7.83333 4.93655 7.62713 4.7642 7.46094C4.59186 7.29167 4.32718 7.16548 3.97017 7.08239L2.78835 6.8054C2.13897 6.65152 1.66193 6.413 1.35724 6.08984C1.05563 5.76361 0.90483 5.35582 0.90483 4.86648C0.90483 4.46638 1.01716 4.11245 1.24183 3.80469C1.46958 3.49692 1.77888 3.25533 2.16974 3.0799C2.56368 2.90447 3.00994 2.81676 3.50852 2.81676C4.21023 2.81676 4.76113 2.97064 5.16122 3.27841C5.56439 3.58617 5.85062 3.99242 6.01989 4.49716ZM9.39569 10L7.23517 2.90909H8.38006L9.91273 8.33807H9.98659L11.5008 2.90909H12.6642L14.1599 8.3196H14.2338L15.7664 2.90909H16.9113L14.7508 10H13.6798L12.1286 4.55256H12.0178L10.4667 10H9.39569ZM35.4165 10.1477C34.7332 10.1477 34.1439 9.99692 33.6483 9.69531C33.1559 9.39062 32.7758 8.96591 32.5081 8.42116C32.2434 7.87334 32.1111 7.23627 32.1111 6.50994C32.1111 5.78362 32.2434 5.14347 32.5081 4.58949C32.7758 4.03243 33.1482 3.59848 33.6253 3.28764C34.1054 2.97372 34.6655 2.81676 35.3057 2.81676C35.675 2.81676 36.0397 2.87831 36.3998 3.00142C36.7599 3.12453 37.0876 3.32457 37.3831 3.60156C37.6785 3.87547 37.914 4.23864 38.0894 4.69105C38.2648 5.14347 38.3525 5.70052 38.3525 6.36222V6.82386H32.8866V5.8821H37.2446C37.2446 5.48201 37.1646 5.125 37.0045 4.81108C36.8476 4.49716 36.6229 4.24941 36.3305 4.06783C36.0412 3.88625 35.6996 3.79545 35.3057 3.79545C34.8717 3.79545 34.4962 3.90317 34.1792 4.11861C33.8653 4.33097 33.6237 4.60795 33.4545 4.94957C33.2852 5.29119 33.2006 5.65743 33.2006 6.0483V6.67614C33.2006 7.21165 33.2929 7.6656 33.4775 8.038C33.6653 8.40732 33.9253 8.68892 34.2577 8.88281C34.5901 9.07363 34.9764 9.16903 35.4165 9.16903C35.7027 9.16903 35.9612 9.12902 36.192 9.04901C36.4259 8.96591 36.6275 8.8428 36.7968 8.67969C36.9661 8.51349 37.0969 8.30729 37.1892 8.06108L38.2417 8.35653C38.1309 8.71354 37.9448 9.02746 37.6831 9.2983C37.4215 9.56605 37.0984 9.77533 36.7137 9.92614C36.329 10.0739 35.8966 10.1477 35.4165 10.1477ZM45.0326 4.49716L44.0539 4.77415C43.9923 4.61103 43.9015 4.45253 43.7815 4.29865C43.6646 4.14169 43.5045 4.01243 43.3014 3.91087C43.0983 3.8093 42.8382 3.75852 42.5212 3.75852C42.0873 3.75852 41.7256 3.85855 41.4363 4.05859C41.1501 4.25556 41.007 4.50639 41.007 4.81108C41.007 5.08191 41.1055 5.29581 41.3025 5.45277C41.4994 5.60973 41.8072 5.74053 42.2258 5.84517L43.2783 6.10369C43.9123 6.25758 44.3847 6.49302 44.6956 6.81001C45.0064 7.12393 45.1618 7.52865 45.1618 8.02415C45.1618 8.4304 45.0449 8.79356 44.811 9.11364C44.5802 9.43371 44.257 9.68608 43.8415 9.87074C43.426 10.0554 42.9429 10.1477 42.392 10.1477C41.6687 10.1477 41.0701 9.99077 40.5961 9.67685C40.1222 9.36293 39.8221 8.90436 39.6959 8.30114L40.73 8.04261C40.8285 8.42424 41.0147 8.71046 41.2886 8.90128C41.5656 9.09209 41.9272 9.1875 42.3735 9.1875C42.8813 9.1875 43.2845 9.07978 43.583 8.86435C43.8846 8.64583 44.0354 8.38423 44.0354 8.07955C44.0354 7.83333 43.9492 7.62713 43.7769 7.46094C43.6046 7.29167 43.3399 7.16548 42.9829 7.08239L41.801 6.8054C41.1517 6.65152 40.6746 6.413 40.3699 6.08984C40.0683 5.76361 39.9175 5.35582 39.9175 4.86648C39.9175 4.46638 40.0299 4.11245 40.2545 3.80469C40.4823 3.49692 40.7916 3.25533 41.1824 3.0799C41.5764 2.90447 42.0226 2.81676 42.5212 2.81676C43.2229 2.81676 43.7738 2.97064 44.1739 3.27841C44.5771 3.58617 44.8633 3.99242 45.0326 4.49716Z" fill="white"/>
<path d="M18.3517 10V2.90909H19.4411V10H18.3517ZM18.9056 1.72727C18.6933 1.72727 18.5102 1.65495 18.3563 1.5103C18.2055 1.36565 18.1301 1.19176 18.1301 0.988636C18.1301 0.785511 18.2055 0.611624 18.3563 0.466974C18.5102 0.322325 18.6933 0.25 18.9056 0.25C19.118 0.25 19.2996 0.322325 19.4504 0.466974C19.6043 0.611624 19.6812 0.785511 19.6812 0.988636C19.6812 1.19176 19.6043 1.36565 19.4504 1.5103C19.2996 1.65495 19.118 1.72727 18.9056 1.72727ZM21.4366 12.6591V2.90909H22.4892V4.03551H22.6184C22.6984 3.91241 22.8092 3.75544 22.9508 3.56463C23.0955 3.37074 23.3017 3.19839 23.5694 3.04759C23.8403 2.8937 24.2065 2.81676 24.6681 2.81676C25.2652 2.81676 25.7915 2.96603 26.247 3.26456C26.7025 3.56309 27.0579 3.98627 27.3134 4.53409C27.5688 5.08191 27.6966 5.72822 27.6966 6.47301C27.6966 7.22396 27.5688 7.87488 27.3134 8.42578C27.0579 8.9736 26.704 9.39832 26.2516 9.69993C25.7992 9.99846 25.2775 10.1477 24.6866 10.1477C24.2311 10.1477 23.8664 10.0723 23.5925 9.92152C23.3186 9.76764 23.1078 9.59375 22.96 9.39986C22.8123 9.20289 22.6984 9.03977 22.6184 8.91051H22.5261V12.6591H21.4366ZM22.5076 6.45455C22.5076 6.99006 22.5861 7.46248 22.7431 7.8718C22.9 8.27805 23.1293 8.59659 23.4309 8.82741C23.7325 9.05516 24.1019 9.16903 24.5389 9.16903C24.9944 9.16903 25.3745 9.04901 25.6792 8.80895C25.9869 8.56581 26.2177 8.23958 26.3716 7.83026C26.5286 7.41785 26.6071 6.95928 26.6071 6.45455C26.6071 5.95597 26.5301 5.50663 26.3762 5.10653C26.2254 4.70336 25.9962 4.38482 25.6884 4.15092C25.3837 3.91394 25.0005 3.79545 24.5389 3.79545C24.0957 3.79545 23.7233 3.90779 23.4217 4.13246C23.1201 4.35405 22.8923 4.66489 22.7385 5.06499C22.5846 5.462 22.5076 5.92519 22.5076 6.45455ZM29.3585 10V2.90909H30.448V10H29.3585ZM29.9125 1.72727C29.7001 1.72727 29.517 1.65495 29.3631 1.5103C29.2123 1.36565 29.1369 1.19176 29.1369 0.988636C29.1369 0.785511 29.2123 0.611624 29.3631 0.466974C29.517 0.322325 29.7001 0.25 29.9125 0.25C30.1248 0.25 30.3064 0.322325 30.4572 0.466974C30.6111 0.611624 30.688 0.785511 30.688 0.988636C30.688 1.19176 30.6111 1.36565 30.4572 1.5103C30.3064 1.65495 30.1248 1.72727 29.9125 1.72727Z" fill="#0033FF"/>
</svg>
